Dear.God.No.DVDSCR.AC3.2.0-Leaked-SIC 

IMDB Link: 
http://www.imdb.com/title/tt1947998/

Description:
A gang of outlaw bikers pull a home invasion on a disgraced Anthropologist hiding 
a secret locked in his cabin basement.

General
Complete name : F:downaldsdeargodDear.God.No.DVDSCR.AC3.2.0-Leaked-SIC.avi
Format : AVI
Format/Info : Audio Video Interleave
File size : 1.37 GiB
Duration : 1h 21mn
Overall bit rate : 2 407 Kbps

Video
ID : 0
Format : MPEG-4 Visual
Format profile : Advanced Simple@L5
Format settings, BVOP : Yes
Format settings, QPel : No
Format settings, GMC : No warppoints
Format settings, Matrix : Default (H.263)
Codec ID : XVID
Codec ID/Hint : XviD
Duration : 1h 21mn
Bit rate : 2 208 Kbps
Width : 720 pixels
Height : 400 pixels
Display aspect ratio : 16:9
Frame rate : 23.976 fps
Color space : YUV
Chroma subsampling : 4:2:0
Bit depth : 8 bits
Scan type : Progressive
Bits/(Pixel*Frame) : 0.320
Stream size : 1.26 GiB (92%)
Writing library : XviD 1.2.1 (UTC 2008-12-04)

Audio
ID : 1
Format : AC-3
Format/Info : Audio Coding 3
Mode extension : CM (complete main)
Codec ID : 2000
Duration : 1h 21mn
Bit rate mode : Constant
Bit rate : 192 Kbps
Channel(s) : 2 channels
Channel positions : Front: L R
Sampling rate : 48.0 KHz
Stream size : 112 MiB (8%)
Alignment : Aligned on interleaves
Interleave, duration : 64 ms (1.53 video frames)
Interleave, preload duration : 512 ms
Title : dgn_2.0_192k


Poster:

 
http://www.shotpix.com/images/69110728565610921888.jpg


Screens:

 
http://www.shotpix.com/images/68869462490091208256.jpg

 
http://www.shotpix.com/images/25231517272484371860.jpg

 
http://www.shotpix.com/images/62854266545597453039.jpg


ENJOY!